<svg xmlns="http://www.w3.org/2000/svg" viewBox="0 0 192 192" width="192" height="192">
  <rect width="192" height="192" rx="38" fill="#7c3aed"/>
  <path d="M96 28 C96 28 120 55 120 80 C120 80 132 68 128 52 C128 52 150 72 150 100 C150 128 125 155 96 155 C67 155 42 128 42 100 C42 72 64 52 64 52 C60 68 72 80 72 80 C72 55 96 28 96 28Z" fill="white" opacity="0.95"/>
  <path d="M96 75 C96 75 108 90 108 105 C108 112 103 118 96 118 C89 118 84 112 84 105 C84 90 96 75 96 75Z" fill="#7c3aed" opacity="0.6"/>
</svg>